<?xml version="1.0" encoding="UTF-8" standalone="no"?>
<svg width="15px" height="12px" viewBox="0 0 15 12" version="1.1" xmlns="http://www.w3.org/2000/svg" xmlns:xlink="http://www.w3.org/1999/xlink">
    <!-- Generator: Sketch 3.8.3 (29802) - http://www.bohemiancoding.com/sketch -->
    <title>Inverse</title>
    <desc>Created with Sketch.</desc>
    <defs></defs>
    <g id="Page-1" stroke="none" stroke-width="1" fill="none" fill-rule="evenodd">
        <g id="iPhone-5/5S/5C" transform="translate(-25.000000, -2830.000000)" fill="#848484">
            <g id="CONTACT-FORM" transform="translate(0.000000, 2542.000000)">
                <g id="E-mail" transform="translate(15.000000, 274.000000)">
                    <g id="Email" transform="translate(10.000000, 10.000000)">
                        <g id="Inverse" transform="translate(0.000000, 4.000000)">
                            <path d="M15,1.47984379 L15,1.00834067 C15,0.44022365 14.5489341,0 13.992516,0 L1.00748397,0 C0.448920205,0 0,0.451449493 0,1.00834067 L0,1.41748215 L6.95447597,6.78534771 C7.2538941,7.02542064 7.77191785,7.02482077 8.06902788,6.78592171 L15,1.47984379 Z M15,3.08244832 L15,9.59836078 C15,10.6988148 14.1066027,11.5909091 13.0081158,11.5909091 L1.99188419,11.5909091 C0.891796927,11.5909091 0,10.700636 0,9.59836078 L0,3.02588012 L6.04296588,7.69018964 C6.8615705,8.34654537 8.16684803,8.34503386 8.98196772,7.68961563 L15,3.08244832 Z" id="Shape"></path>
                        </g>
                    </g>
                </g>
            </g>
        </g>
    </g>
</svg>