<?xml version="1.0" encoding="UTF-8" standalone="no"?>
<svg width="15px" height="15px" viewBox="0 0 15 15" version="1.1" xmlns="http://www.w3.org/2000/svg" xmlns:xlink="http://www.w3.org/1999/xlink">
    <!-- Generator: Sketch 3.8.3 (29802) - http://www.bohemiancoding.com/sketch -->
    <title>Path 107</title>
    <desc>Created with Sketch.</desc>
    <defs></defs>
    <g id="Page-1" stroke="none" stroke-width="1" fill="none" fill-rule="evenodd">
        <g id="iPhone-5/5S/5C" transform="translate(-25.000000, -2883.000000)" fill="#848484">
            <g id="CONTACT-FORM" transform="translate(0.000000, 2542.000000)">
                <g id="Phone" transform="translate(16.000000, 329.000000)">
                    <g transform="translate(9.000000, 10.000000)" id="phone-icon">
                        <g transform="translate(0.000000, 2.000000)">
                            <path d="M0.0382802532,2.71871273 C0.0382802532,4.85305493 1.54159489,7.8564017 4.90200049,10.8696285 C8.2624061,13.8828554 10.5758569,14.9453182 12.4915235,14.4926086 C13.3103418,14.2991059 15.7185802,12.5072705 14.2099734,11.1330834 C13.8913288,10.8428307 12.0832144,9.1525831 10.6475491,8.87279519 C9.77721102,8.7031804 9.32307429,10.0868791 8.49722585,9.57422011 C7.36729217,8.87279519 5.67511281,7.33514603 5.05668807,5.98092914 C4.76499226,5.34217816 6.27580857,4.28479498 5.93563565,3.71660368 C4.62445808,1.52654195 3.7117239,0.0776444319 2.86858196,0.0776444319 C2.33136917,0.0776444319 0.0382802532,0.584370538 0.0382802532,2.71871273 Z" id="Path-107"></path>
                        </g>
                    </g>
                </g>
            </g>
        </g>
    </g>
</svg>