<svg id="icons-white" xmlns="http://www.w3.org/2000/svg" viewBox="0 0 46 46"><defs><style>.cls-1{fill:none;stroke:#e48210;stroke-linecap:round;stroke-linejoin:round;stroke-width:2px;}</style></defs><title>ship</title><path class="cls-1" d="M429.2,486.08l3.92-3.57a5.37,5.37,0,0,1,7.09,0l0.3,0.27a5.37,5.37,0,0,0,7.09,0l0.11-.1a5.37,5.37,0,0,1,7.09,0h0a5.37,5.37,0,0,0,7.09,0l0.45-.41a5.37,5.37,0,0,1,7.09,0l3.77,3.43" transform="translate(-428.2 -441.08)"/><polyline class="cls-1" points="7.76 39.86 1 24.57 45 24.57 38.24 39.86"/><rect class="cls-1" x="6.96" y="12.27" width="18.13" height="12.31"/><line class="cls-1" x1="13.12" y1="12.27" x2="13.12" y2="2.68"/><path class="cls-1" d="M449.92,443.22c1.72-.78,3.78-1.55,5.39-0.56a7.39,7.39,0,0,0,1.16.74c1.28,0.49,2.53-.72,3.83-1.15a3.51,3.51,0,0,1,2.33.05c0.47,0.18.9,0.46,1.37,0.62a3.14,3.14,0,0,0,2.76-.37" transform="translate(-428.2 -441.08)"/></svg>