<svg xmlns="http://www.w3.org/2000/svg" viewBox="0 0 81.58 49.64"><defs><style>.cls-1,.cls-3{fill:none;stroke:#ff931e;stroke-width:1.91px;}.cls-1{stroke-miterlimit:10;}.cls-2{font-size:11.69px;fill:#ff931e;font-family:ProximaNova-Bold, Proxima Nova;font-weight:700;}.cls-3{stroke-linecap:round;stroke-linejoin:round;}</style></defs><title>Asset 1</title><g id="Layer_2" data-name="Layer 2"><g id="Layer_2-2" data-name="Layer 2"><rect class="cls-1" x="0.95" y="0.95" width="79.67" height="47.73" rx="7.81" ry="7.81"/><path class="cls-1" d="M19.91,10.21a3.58,3.58,0,0,0,3.88,0,2,2,0,0,1,3,.74,3.58,3.58,0,0,0,3.44,1.81,2,2,0,0,1,2.33,2.06A3.58,3.58,0,0,0,34.79,18a2,2,0,0,1,1.1,2.91,3.58,3.58,0,0,0,.47,3.86A2,2,0,0,1,36,27.86,3.58,3.58,0,0,0,34.6,31.5a2,2,0,0,1-1.77,2.56,3.58,3.58,0,0,0-2.91,2.58,2,2,0,0,1-2.75,1.44,3.58,3.58,0,0,0-3.77.93,2,2,0,0,1-3.11,0,3.58,3.58,0,0,0-3.77-.93,2,2,0,0,1-2.75-1.44,3.58,3.58,0,0,0-2.91-2.58A2,2,0,0,1,9.1,31.5a3.58,3.58,0,0,0-1.38-3.63,2,2,0,0,1-.37-3.09,3.58,3.58,0,0,0,.47-3.86A2,2,0,0,1,8.92,18a3.58,3.58,0,0,0,2.21-3.2,2,2,0,0,1,2.33-2.06A3.58,3.58,0,0,0,16.89,11,2,2,0,0,1,19.91,10.21Z"/><circle class="cls-1" cx="21.81" cy="24.8" r="10.49"/><text class="cls-2" transform="translate(14.79 28.85)">20</text><line class="cls-3" x1="50.13" y1="10.65" x2="67.17" y2="10.65"/><line class="cls-3" x1="44.38" y1="19.11" x2="72.92" y2="19.11"/><line class="cls-3" x1="44.38" y1="25.43" x2="72.92" y2="25.43"/><line class="cls-3" x1="44.38" y1="31.75" x2="72.92" y2="31.75"/><line class="cls-3" x1="44.38" y1="38.06" x2="72.92" y2="38.06"/></g></g></svg>