<svg xmlns="http://www.w3.org/2000/svg" viewBox="0 0 60.08 52"><defs><style>.cls-1,.cls-2{fill:none;stroke:#ff931e;stroke-width:2px;}.cls-1{stroke-miterlimit:10;}.cls-2{stroke-linecap:round;stroke-linejoin:round;}</style></defs><title>Asset 3</title><g id="Layer_2" data-name="Layer 2"><g id="Layer_2-2" data-name="Layer 2"><path class="cls-1" d="M52.45,44.94"/><path class="cls-2" d="M33.82,5.86a14.86,14.86,0,0,1,21-.46c5.93,5.67,5.47,14.41-.2,20.34"/><path class="cls-2" d="M30.42,49.94a3.6,3.6,0,1,1-5.09-5.08"/><path class="cls-2" d="M15.16,34.69a3.6,3.6,0,1,1-5.09-5.08"/><path class="cls-2" d="M20.25,39.77a3.6,3.6,0,1,1-5.09-5.08"/><path class="cls-2" d="M25.33,44.86a3.6,3.6,0,1,1-5.09-5.08"/><line class="cls-2" x1="29.85" y1="9.84" x2="34.16" y2="5.52"/><line class="cls-2" x1="10.08" y1="29.6" x2="24.76" y2="14.92"/><line class="cls-2" x1="54.5" y1="25.86" x2="30.42" y2="49.94"/><line class="cls-2" x1="15.16" y1="34.69" x2="23.71" y2="26.14"/><line class="cls-2" x1="20.25" y1="39.77" x2="28.79" y2="31.22"/><line class="cls-2" x1="25.33" y1="44.86" x2="33.88" y2="36.31"/><path class="cls-2" d="M5.58,26.26a14.86,14.86,0,0,1-.46-21c5.67-5.93,14.41-5.47,20.34.2"/><line class="cls-2" x1="9.57" y1="30.24" x2="5.25" y2="25.92"/><line class="cls-2" x1="29.85" y1="9.84" x2="38.25" y2="18.24"/><line class="cls-2" x1="25.59" y1="5.58" x2="29.85" y2="9.84"/><path class="cls-2" d="M38.26,18.24a3.6,3.6,0,1,1-5.08,5.09l-8.42-8.42"/></g></g></svg>