<svg xmlns="http://www.w3.org/2000/svg" viewBox="0 0 79.54 49.64"><defs><style>.cls-1{fill:none;stroke:#ff931e;stroke-linecap:round;stroke-linejoin:round;stroke-width:1.91px;}</style></defs><title>Asset 2</title><g id="Layer_2" data-name="Layer 2"><g id="Layer_2-2" data-name="Layer 2"><path class="cls-1" d="M29.2,30.17a1.92,1.92,0,0,1,2.29-.11l7.43,5.09a1.9,1.9,0,0,0,2.21,0l7-5.28a1.88,1.88,0,0,1,2.25,0,17.26,17.26,0,0,1,6.92,13.83v3.15a1.9,1.9,0,0,1-1.9,1.9H24.65a1.9,1.9,0,0,1-1.9-1.9V43.63A17.25,17.25,0,0,1,29.2,30.17"/><line class="cls-1" x1="49.08" y1="11.72" x2="49.08" y2="20.5"/><line class="cls-1" x1="30.46" y1="20.5" x2="30.46" y2="11.72"/><path class="cls-1" d="M49.08,20.5a9.31,9.31,0,0,1-18.61,0"/><path class="cls-1" d="M39.64,5.49"/><path class="cls-1" d="M49.08,17.45c0-3.74-3.72-3.07-3.72-3.07C33,17.45,30.48,11.74,30.48,11.74s.69-6.58,7.65-6.58c0,0,5.45.44,4.74-4.21a5.83,5.83,0,0,1,1.68,4.65s4.52.31,4.52,6.11"/><path class="cls-1" d="M22.75,44H2.62A1.66,1.66,0,0,1,1,42.36V39.59A15.1,15.1,0,0,1,6.6,27.81a1.68,1.68,0,0,1,2-.09l6.5,4.45a1.66,1.66,0,0,0,1.94,0l6.15-4.62a1.64,1.64,0,0,1,2,0A28.22,28.22,0,0,1,28.28,31"/><line class="cls-1" x1="24" y1="11.67" x2="24" y2="19.35"/><line class="cls-1" x1="7.7" y1="19.35" x2="7.7" y2="11.67"/><path class="cls-1" d="M24,19.35a8.15,8.15,0,1,1-16.29,0"/><path class="cls-1" d="M15.74,6.21"/><path class="cls-1" d="M24,17.05C24,13.24,20.74,14,20.74,14c-11.72,1.56-13-2.31-13-2.31a6.52,6.52,0,0,1,6.7-5.76s4.77.39,4.15-3.69A5.1,5.1,0,0,1,20,6.31s4,.27,4,5.35"/><path class="cls-1" d="M51.5,30.41A15.19,15.19,0,0,1,54,27.84a1.67,1.67,0,0,1,2-.09l6.49,4.45a1.66,1.66,0,0,0,1.93,0l6.14-4.61a1.64,1.64,0,0,1,2,0,15.08,15.08,0,0,1,6,12.08v2.76A1.66,1.66,0,0,1,76.93,44H58.24"/><line class="cls-1" x1="71.38" y1="11.72" x2="71.38" y2="19.39"/><line class="cls-1" x1="55.12" y1="19.39" x2="55.12" y2="11.72"/><path class="cls-1" d="M71.38,19.39a8.13,8.13,0,0,1-16.26,0"/><path class="cls-1" d="M63.14,6.27"/><path class="cls-1" d="M71.38,16c0-3.14-3.25-1.94-3.25-1.94-10.59,2.06-13-2.31-13-2.31A6.51,6.51,0,0,1,61.82,6s4.76.39,4.14-3.68a5.1,5.1,0,0,1,1.47,4.07s3.95.27,3.95,5.34"/></g></g></svg>